<svg width="406" height="90" viewBox="0 0 406 90" fill="none" xmlns="http://www.w3.org/2000/svg">
<g filter="url(#filter0_d)">
<path d="M102.064 65L115.096 17.48H130.144L133.456 44.624L146.848 17.48H159.448L160.744 53.048C160.936 57.752 162.184 60.824 164.488 62.264C163.96 63.224 162.928 64.16 161.392 65.072C159.856 65.984 158.056 66.44 155.992 66.44C153.976 66.44 152.368 66.152 151.168 65.576C149.968 65 149.032 64.232 148.36 63.272C147.16 61.544 146.56 59.024 146.56 55.712V33.464L132.376 65H123.448L118.408 32.672L110.344 65H102.064ZM201.056 52.832C202.256 53.648 202.856 54.968 202.856 56.792C202.856 58.568 202.4 60.032 201.488 61.184C200.576 62.336 199.376 63.296 197.888 64.064C194.816 65.648 191.624 66.44 188.312 66.44C185 66.44 182.36 66.08 180.392 65.36C178.472 64.64 176.864 63.608 175.568 62.264C173.024 59.72 171.752 56.12 171.752 51.464C171.752 44.216 173.72 38.384 177.656 33.968C181.88 29.216 187.664 26.84 195.008 26.84C199.568 26.84 202.976 27.8 205.232 29.72C206.912 31.16 207.752 33.056 207.752 35.408C207.752 43.856 200.456 48.08 185.864 48.08C185.672 49.328 185.576 50.48 185.576 51.536C185.576 53.744 186.056 55.28 187.016 56.144C188.024 56.96 189.44 57.368 191.264 57.368C193.088 57.368 194.96 56.96 196.88 56.144C198.848 55.28 200.24 54.176 201.056 52.832ZM186.368 44.984C189.776 44.984 192.464 43.928 194.432 41.816C196.4 39.8 197.384 37.184 197.384 33.968C197.384 32.864 197.168 32.024 196.736 31.448C196.352 30.824 195.752 30.512 194.936 30.512C194.12 30.512 193.352 30.68 192.632 31.016C191.96 31.304 191.264 31.976 190.544 33.032C188.768 35.432 187.376 39.416 186.368 44.984ZM266.376 66.44C260.568 66.44 257.664 64.184 257.664 59.672C257.664 57.704 258.072 54.824 258.888 51.032C259.752 47.192 260.328 44.504 260.616 42.968C261.288 39.464 261.624 37.16 261.624 36.056C261.624 33.608 260.712 32.384 258.888 32.384C257.688 32.384 256.512 33.224 255.36 34.904C254.208 36.536 253.368 39.008 252.84 42.32L248.376 65L234.336 66.44L238.224 46.856C238.656 44.696 239.064 42.392 239.448 39.944C239.832 37.496 240.024 36.08 240.024 35.696C240.024 33.488 239.208 32.384 237.576 32.384C236.472 32.384 235.32 33.2 234.12 34.832C232.92 36.464 231.984 38.96 231.312 42.32L226.92 65L212.736 66.44L220.296 28.28L232.032 26.84L230.808 34.112C232.056 31.52 233.832 29.672 236.136 28.568C238.44 27.416 241.392 26.84 244.992 26.84C247.056 26.84 248.76 27.344 250.104 28.352C251.448 29.36 252.336 30.68 252.768 32.312C253.584 30.632 255.024 29.312 257.088 28.352C259.2 27.344 261.528 26.84 264.072 26.84C266.664 26.84 268.584 27.128 269.832 27.704C271.128 28.232 272.16 28.952 272.928 29.864C274.224 31.544 274.872 33.92 274.872 36.992C274.872 40.016 274.224 44.672 272.928 50.96C272.256 54.032 271.92 56.144 271.92 57.296C271.92 58.4 272.232 59.288 272.856 59.96C273.528 60.632 274.344 61.016 275.304 61.112C274.824 62.744 273.744 64.04 272.064 65C270.432 65.96 268.536 66.44 266.376 66.44ZM300.857 66.44C290.297 66.44 285.017 61.472 285.017 51.536C285.017 44.48 286.961 38.672 290.849 34.112C294.977 29.264 300.617 26.84 307.769 26.84C312.953 26.84 316.865 28.04 319.505 30.44C322.145 32.84 323.465 36.56 323.465 41.6C323.465 49.28 321.401 55.352 317.273 59.816C313.241 64.232 307.769 66.44 300.857 66.44ZM302.729 35.12C302.153 36.416 301.625 38.048 301.145 40.016C300.713 41.936 300.209 44.432 299.633 47.504C299.057 50.576 298.769 54.008 298.769 57.8C298.769 59.048 298.961 60.08 299.345 60.896C299.777 61.712 300.545 62.12 301.649 62.12C302.753 62.12 303.641 61.856 304.313 61.328C305.033 60.8 305.657 59.912 306.185 58.664C307.145 56.456 308.009 53.312 308.777 49.232C309.545 45.104 309.953 42.152 310.001 40.376C310.097 38.6 310.145 37.064 310.145 35.768C310.145 34.424 309.953 33.32 309.569 32.456C309.185 31.592 308.441 31.16 307.337 31.16C306.281 31.16 305.393 31.496 304.673 32.168C303.953 32.84 303.305 33.824 302.729 35.12ZM349.3 61.04C347.812 64.64 344.692 66.44 339.94 66.44C337.492 66.44 335.5 65.6 333.964 63.92C332.668 62.432 332.02 60.944 332.02 59.456C332.02 55.568 332.908 49.832 334.684 42.248L337.348 28.28L351.964 26.84L347.572 49.592C346.756 53.144 346.348 55.544 346.348 56.792C346.348 59.528 347.332 60.944 349.3 61.04ZM338.644 18.272C338.644 16.4 339.412 14.96 340.948 13.952C342.532 12.944 344.452 12.44 346.708 12.44C348.964 12.44 350.764 12.944 352.108 13.952C353.5 14.96 354.196 16.4 354.196 18.272C354.196 20.144 353.428 21.56 351.892 22.52C350.404 23.48 348.532 23.96 346.276 23.96C344.02 23.96 342.172 23.48 340.732 22.52C339.34 21.56 338.644 20.144 338.644 18.272ZM382.29 44.768C384.018 41.696 384.882 38.6 384.882 35.48C384.882 33.416 384.138 32.384 382.65 32.384C381.498 32.384 380.322 33.368 379.122 35.336C377.874 37.304 377.058 39.56 376.674 42.104L372.93 65L358.026 66.44L365.37 28.28L377.25 26.84L375.954 34.112C378.306 29.264 382.122 26.84 387.402 26.84C390.186 26.84 392.322 27.56 393.81 29C395.346 30.44 396.114 32.648 396.114 35.624C396.114 38.552 395.13 40.952 393.162 42.824C391.242 44.696 388.626 45.632 385.314 45.632C383.874 45.632 382.866 45.344 382.29 44.768Z" fill="white"/>
<path d="M102.064 65L101.1 64.7355L100.753 66H102.064V65ZM115.096 17.48V16.48H114.333L114.132 17.2155L115.096 17.48ZM130.144 17.48L131.137 17.3589L131.029 16.48H130.144V17.48ZM133.456 44.624L132.463 44.7451L132.869 48.0731L134.353 45.0664L133.456 44.624ZM146.848 17.48V16.48H146.226L145.951 17.0375L146.848 17.48ZM159.448 17.48L160.447 17.4436L160.412 16.48H159.448V17.48ZM160.744 53.048L159.745 53.0844L159.745 53.0888L160.744 53.048ZM164.488 62.264L165.364 62.7459L165.82 61.9172L165.018 61.416L164.488 62.264ZM161.392 65.072L160.881 64.2121L161.392 65.072ZM151.168 65.576L151.601 64.6745L151.168 65.576ZM148.36 63.272L147.539 63.8424L147.541 63.8455L148.36 63.272ZM146.56 33.464H147.56L145.648 33.0538L146.56 33.464ZM132.376 65V66H133.023L133.288 65.4102L132.376 65ZM123.448 65L122.46 65.154L122.592 66H123.448V65ZM118.408 32.672L119.396 32.518L117.438 32.43L118.408 32.672ZM110.344 65V66H111.125L111.314 65.242L110.344 65ZM103.028 65.2645L116.06 17.7445L114.132 17.2155L101.1 64.7355L103.028 65.2645ZM115.096 18.48H130.144V16.48H115.096V18.48ZM129.151 17.6011L132.463 44.7451L134.449 44.5029L131.137 17.3589L129.151 17.6011ZM134.353 45.0664L147.745 17.9224L145.951 17.0375L132.559 44.1815L134.353 45.0664ZM146.848 18.48H159.448V16.48H146.848V18.48ZM158.449 17.5164L159.745 53.0844L161.743 53.0116L160.447 17.4436L158.449 17.5164ZM159.745 53.0888C159.941 57.8835 161.219 61.3999 163.958 63.112L165.018 61.416C163.149 60.2481 161.931 57.6205 161.743 53.0072L159.745 53.0888ZM163.612 61.7821C163.208 62.5163 162.351 63.3398 160.881 64.2121L161.903 65.9319C163.505 64.9802 164.712 63.9317 165.364 62.7459L163.612 61.7821ZM160.881 64.2121C159.523 65.0189 157.905 65.44 155.992 65.44V67.44C158.207 67.44 160.189 66.9491 161.903 65.9319L160.881 64.2121ZM155.992 65.44C154.056 65.44 152.614 65.1609 151.601 64.6745L150.735 66.4775C152.122 67.1431 153.896 67.44 155.992 67.44V65.44ZM151.601 64.6745C150.534 64.1626 149.74 63.4996 149.179 62.6985L147.541 63.8455C148.324 64.9644 149.402 65.8374 150.735 66.4775L151.601 64.6745ZM149.181 62.7016C148.147 61.2121 147.56 58.9283 147.56 55.712H145.56C145.56 59.1197 146.173 61.8759 147.539 63.8424L149.181 62.7016ZM147.56 55.712V33.464H145.56V55.712H147.56ZM145.648 33.0538L131.464 64.5898L133.288 65.4102L147.472 33.8742L145.648 33.0538ZM132.376 64H123.448V66H132.376V64ZM124.436 64.846L119.396 32.518L117.42 32.826L122.46 65.154L124.436 64.846ZM117.438 32.43L109.374 64.758L111.314 65.242L119.378 32.914L117.438 32.43ZM110.344 64H102.064V66H110.344V64ZM201.056 52.832L201.618 52.0051L200.747 51.413L200.201 52.313L201.056 52.832ZM201.488 61.184L202.272 61.8047L202.272 61.8047L201.488 61.184ZM197.888 64.064L198.346 64.9528L198.346 64.9526L197.888 64.064ZM180.392 65.36L180.04 66.2964L180.048 66.2991L180.392 65.36ZM175.568 62.264L176.287 61.5699L176.281 61.5633L176.275 61.5569L175.568 62.264ZM177.656 33.968L178.402 34.6334L178.403 34.6324L177.656 33.968ZM205.232 29.72L205.882 28.9607L205.88 28.9585L205.232 29.72ZM185.864 48.08V47.08H185.006L184.875 47.9279L185.864 48.08ZM187.016 56.144L186.347 56.8873L186.366 56.9048L186.386 56.9212L187.016 56.144ZM196.88 56.144L197.271 57.0644L197.282 57.0596L196.88 56.144ZM186.368 44.984L185.384 44.8059L185.17 45.984H186.368V44.984ZM194.432 41.816L193.716 41.1175L193.708 41.1258L193.7 41.1343L194.432 41.816ZM196.736 31.448L195.884 31.9721L195.908 32.0112L195.936 32.048L196.736 31.448ZM192.632 31.016L193.025 31.9351L193.04 31.9289L193.054 31.9222L192.632 31.016ZM190.544 33.032L191.347 33.6268L191.359 33.6113L191.37 33.5953L190.544 33.032ZM200.493 53.6589C201.349 54.2406 201.856 55.2032 201.856 56.792H203.856C203.856 54.7328 203.162 53.0554 201.618 52.0051L200.493 53.6589ZM201.856 56.792C201.856 58.3913 201.448 59.6226 200.704 60.5633L202.272 61.8047C203.351 60.4414 203.856 58.7447 203.856 56.792H201.856ZM200.704 60.5633C199.891 61.5893 198.808 62.4635 197.429 63.1754L198.346 64.9526C199.943 64.1285 201.26 63.0827 202.272 61.8047L200.704 60.5633ZM197.429 63.1752C194.493 64.6894 191.457 65.44 188.312 65.44V67.44C191.79 67.44 195.139 66.6066 198.346 64.9528L197.429 63.1752ZM188.312 65.44C185.057 65.44 182.548 65.0842 180.735 64.4209L180.048 66.2991C182.171 67.0758 184.942 67.44 188.312 67.44V65.44ZM180.743 64.4237C178.948 63.7507 177.47 62.7965 176.287 61.5699L174.848 62.9581C176.257 64.4195 177.995 65.5293 180.04 66.2963L180.743 64.4237ZM176.275 61.5569C173.969 59.2511 172.752 55.9362 172.752 51.464H170.752C170.752 56.3038 172.078 60.1889 174.86 62.9711L176.275 61.5569ZM172.752 51.464C172.752 44.4036 174.664 38.8272 178.402 34.6334L176.909 33.3026C172.775 37.9408 170.752 44.0284 170.752 51.464H172.752ZM178.403 34.6324C182.407 30.1279 187.9 27.84 195.008 27.84V25.84C187.427 25.84 181.352 28.3041 176.908 33.3036L178.403 34.6324ZM195.008 27.84C199.452 27.84 202.584 28.7796 204.583 30.4815L205.88 28.9585C203.367 26.8204 199.683 25.84 195.008 25.84V27.84ZM204.581 30.4793C206.024 31.7161 206.752 33.327 206.752 35.408H208.752C208.752 32.785 207.799 30.6039 205.882 28.9607L204.581 30.4793ZM206.752 35.408C206.752 39.2761 205.117 42.1138 201.779 44.0466C198.357 46.0275 193.096 47.08 185.864 47.08V49.08C193.223 49.08 198.906 48.0205 202.781 45.7774C206.738 43.4862 208.752 39.9879 208.752 35.408H206.752ZM184.875 47.9279C184.677 49.2168 184.576 50.4204 184.576 51.536H186.576C186.576 50.5396 186.666 49.4392 186.852 48.2321L184.875 47.9279ZM184.576 51.536C184.576 53.8363 185.067 55.7353 186.347 56.8873L187.685 55.4007C187.045 54.8247 186.576 53.6517 186.576 51.536H184.576ZM186.386 56.9212C187.632 57.93 189.302 58.368 191.264 58.368V56.368C189.577 56.368 188.415 55.99 187.645 55.3668L186.386 56.9212ZM191.264 58.368C193.24 58.368 195.245 57.9254 197.271 57.0643L196.488 55.2237C194.674 55.9946 192.935 56.368 191.264 56.368V58.368ZM197.282 57.0596C199.37 56.1427 200.955 54.9245 201.91 53.351L200.201 52.313C199.524 53.4275 198.325 54.4173 196.478 55.2284L197.282 57.0596ZM186.368 45.984C189.999 45.984 192.972 44.8494 195.163 42.4977L193.7 41.1343C191.955 43.0066 189.553 43.984 186.368 43.984V45.984ZM195.147 42.5145C197.324 40.2849 198.384 37.405 198.384 33.968H196.384C196.384 36.963 195.475 39.3151 193.716 41.1175L195.147 42.5145ZM198.384 33.968C198.384 32.7564 198.15 31.6675 197.536 30.848L195.936 32.048C196.185 32.3805 196.384 32.9716 196.384 33.968H198.384ZM197.587 30.9239C196.998 29.9661 196.052 29.512 194.936 29.512V31.512C195.451 31.512 195.705 31.6819 195.884 31.9721L197.587 30.9239ZM194.936 29.512C193.978 29.512 193.065 29.7103 192.209 30.1098L193.054 31.9222C193.638 31.6497 194.262 31.512 194.936 31.512V29.512ZM192.238 30.0969C191.303 30.4973 190.474 31.3585 189.717 32.4687L191.37 33.5953C192.053 32.5935 192.616 32.1107 193.025 31.9351L192.238 30.0969ZM189.74 32.4372C187.823 35.0273 186.399 39.1988 185.384 44.8059L187.352 45.1621C188.352 39.6332 189.712 35.8367 191.347 33.6268L189.74 32.4372ZM258.888 51.032L257.912 50.8125L257.91 50.8216L258.888 51.032ZM260.616 42.968L259.634 42.7796L259.633 42.7837L260.616 42.968ZM255.36 34.904L256.177 35.4807L256.185 35.4695L255.36 34.904ZM252.84 42.32L253.821 42.5131L253.825 42.4953L253.827 42.4774L252.84 42.32ZM248.376 65L248.478 65.9948L249.214 65.9193L249.357 65.1931L248.376 65ZM234.336 66.44L233.355 66.2453L233.091 67.5729L234.438 67.4348L234.336 66.44ZM238.224 46.856L237.243 46.6599L237.243 46.6613L238.224 46.856ZM239.448 39.944L238.46 39.789L238.46 39.789L239.448 39.944ZM234.12 34.832L233.314 34.2396L233.314 34.2396L234.12 34.832ZM231.312 42.32L230.331 42.1239L230.33 42.1299L231.312 42.32ZM226.92 65L227.021 65.9949L227.76 65.9198L227.902 65.1901L226.92 65ZM212.736 66.44L211.755 66.2457L211.492 67.5714L212.837 67.4349L212.736 66.44ZM220.296 28.28L220.174 27.2874L219.456 27.3756L219.315 28.0857L220.296 28.28ZM232.032 26.84L233.018 27.006L233.24 25.6842L231.91 25.8474L232.032 26.84ZM230.808 34.112L229.822 33.946L231.709 34.5458L230.808 34.112ZM236.136 28.568L236.568 29.4698L236.576 29.4662L236.583 29.4624L236.136 28.568ZM250.104 28.352L249.504 29.152L249.504 29.152L250.104 28.352ZM252.768 32.312L251.801 32.5679L252.49 35.1719L253.667 32.7489L252.768 32.312ZM257.088 28.352L257.51 29.2588L257.519 29.2545L257.088 28.352ZM269.832 27.704L269.413 28.612L269.433 28.6215L269.455 28.6301L269.832 27.704ZM272.928 29.864L273.72 29.2532L273.707 29.2362L273.693 29.2199L272.928 29.864ZM272.928 50.96L273.905 51.1737L273.907 51.1619L272.928 50.96ZM272.856 59.96L272.123 60.6405L272.136 60.654L272.149 60.6671L272.856 59.96ZM275.304 61.112L276.263 61.3942L276.604 60.237L275.403 60.117L275.304 61.112ZM272.064 65L271.568 64.1317L271.557 64.1381L272.064 65ZM266.376 65.44C263.574 65.44 261.656 64.8911 260.455 63.9583C259.303 63.0628 258.664 61.6969 258.664 59.672H256.664C256.664 62.1591 257.477 64.1772 259.228 65.5377C260.932 66.8609 263.37 67.44 266.376 67.44V65.44ZM258.664 59.672C258.664 57.8137 259.053 55.0182 259.865 51.2424L257.91 50.8216C257.091 54.6298 256.664 57.5943 256.664 59.672H258.664ZM259.863 51.2515C260.727 47.4121 261.307 44.708 261.599 43.1523L259.633 42.7837C259.349 44.2999 258.776 46.9719 257.912 50.8125L259.863 51.2515ZM261.598 43.1563C262.266 39.6735 262.624 37.2726 262.624 36.056H260.624C260.624 37.0474 260.31 39.2545 259.634 42.7796L261.598 43.1563ZM262.624 36.056C262.624 34.7369 262.383 33.5655 261.742 32.7045C261.059 31.7883 260.046 31.384 258.888 31.384V33.384C259.553 33.384 259.909 33.5917 260.138 33.8995C260.408 34.2625 260.624 34.9271 260.624 36.056H262.624ZM258.888 31.384C257.181 31.384 255.744 32.5759 254.535 34.3385L256.185 35.4695C257.28 33.8721 258.195 33.384 258.888 33.384V31.384ZM254.543 34.3273C253.262 36.1416 252.39 38.7891 251.852 42.1626L253.827 42.4774C254.346 39.2269 255.154 36.9304 256.177 35.4807L254.543 34.3273ZM251.859 42.1269L247.395 64.8069L249.357 65.1931L253.821 42.5131L251.859 42.1269ZM248.274 64.0052L234.234 65.4452L234.438 67.4348L248.478 65.9948L248.274 64.0052ZM235.317 66.6347L239.205 47.0507L237.243 46.6613L233.355 66.2453L235.317 66.6347ZM239.204 47.0521C239.64 44.8769 240.05 42.5591 240.436 40.099L238.46 39.789C238.078 42.2249 237.672 44.5151 237.243 46.6599L239.204 47.0521ZM240.436 40.099C240.628 38.8723 240.773 37.8984 240.871 37.1804C240.964 36.4941 241.024 35.9699 241.024 35.696H239.024C239.024 35.8061 238.988 36.1819 238.889 36.9116C238.794 37.6096 238.652 38.5677 238.46 39.789L240.436 40.099ZM241.024 35.696C241.024 34.4981 240.808 33.4181 240.216 32.6176C239.583 31.7606 238.641 31.384 237.576 31.384V33.384C238.142 33.384 238.425 33.5594 238.608 33.8064C238.832 34.1099 239.024 34.6859 239.024 35.696H241.024ZM237.576 31.384C235.966 31.384 234.553 32.5547 233.314 34.2396L234.926 35.4244C236.087 33.8453 236.978 33.384 237.576 33.384V31.384ZM233.314 34.2396C231.988 36.0439 231.015 38.7066 230.331 42.1239L232.292 42.5161C232.953 39.2134 233.852 36.8841 234.926 35.4244L233.314 34.2396ZM230.33 42.1299L225.938 64.8099L227.902 65.1901L232.294 42.5101L230.33 42.1299ZM226.819 64.0051L212.635 65.4451L212.837 67.4349L227.021 65.9949L226.819 64.0051ZM213.717 66.6343L221.277 28.4743L219.315 28.0857L211.755 66.2457L213.717 66.6343ZM220.418 29.2726L232.154 27.8326L231.91 25.8474L220.174 27.2874L220.418 29.2726ZM231.046 26.674L229.822 33.946L231.794 34.278L233.018 27.006L231.046 26.674ZM231.709 34.5458C232.871 32.1313 234.495 30.4633 236.568 29.4698L235.704 27.6662C233.169 28.8807 231.24 30.9087 229.907 33.6782L231.709 34.5458ZM236.583 29.4624C238.704 28.4018 241.489 27.84 244.992 27.84V25.84C241.295 25.84 238.175 26.4302 235.689 27.6736L236.583 29.4624ZM244.992 27.84C246.89 27.84 248.369 28.3012 249.504 29.152L250.704 27.552C249.15 26.3868 247.222 25.84 244.992 25.84V27.84ZM249.504 29.152C250.667 30.0243 251.426 31.1522 251.801 32.5679L253.735 32.0561C253.245 30.2078 252.229 28.6957 250.704 27.552L249.504 29.152ZM253.667 32.7489C254.362 31.3182 255.607 30.1437 257.51 29.2587L256.666 27.4453C254.441 28.4803 252.805 29.9458 251.868 31.8751L253.667 32.7489ZM257.519 29.2545C259.485 28.3161 261.664 27.84 264.072 27.84V25.84C261.392 25.84 258.915 26.3719 256.657 27.4495L257.519 29.2545ZM264.072 27.84C266.625 27.84 268.367 28.1292 269.413 28.612L270.251 26.796C268.801 26.1268 266.703 25.84 264.072 25.84V27.84ZM269.455 28.6301C270.627 29.1075 271.516 29.74 272.163 30.5081L273.693 29.2199C272.804 28.1639 271.629 27.3564 270.209 26.7779L269.455 28.6301ZM272.136 30.4748C273.248 31.9167 273.872 34.0453 273.872 36.992H275.872C275.872 33.7947 275.199 31.1713 273.72 29.2532L272.136 30.4748ZM273.872 36.992C273.872 39.9079 273.242 44.4798 271.948 50.7581L273.907 51.1619C275.205 44.8642 275.872 40.1241 275.872 36.992H273.872ZM271.951 50.7463C271.281 53.8077 270.92 56.0206 270.92 57.296H272.92C272.92 56.2674 273.23 54.2563 273.905 51.1737L271.951 50.7463ZM270.92 57.296C270.92 58.598 271.294 59.7471 272.123 60.6405L273.589 59.2795C273.17 58.8289 272.92 58.202 272.92 57.296H270.92ZM272.149 60.6671C272.987 61.505 274.018 61.9884 275.204 62.107L275.403 60.117C274.669 60.0436 274.069 59.759 273.563 59.2529L272.149 60.6671ZM274.345 60.8298C273.948 62.1794 273.057 63.2809 271.568 64.1318L272.56 65.8682C274.431 64.7991 275.7 63.3086 276.263 61.3942L274.345 60.8298ZM271.557 64.1381C270.099 64.9955 268.383 65.44 266.376 65.44V67.44C268.689 67.44 270.765 66.9245 272.571 65.8619L271.557 64.1381ZM290.849 34.112L291.61 34.7608L291.61 34.7603L290.849 34.112ZM317.273 59.816L316.538 59.1371L316.534 59.1417L317.273 59.816ZM301.145 40.016L300.173 39.779L300.171 39.7877L300.169 39.7965L301.145 40.016ZM299.633 47.504L298.65 47.3197L298.65 47.3197L299.633 47.504ZM299.345 60.896L298.44 61.3218L298.45 61.3431L298.461 61.3639L299.345 60.896ZM304.313 61.328L303.721 60.5216L303.708 60.5314L303.695 60.5417L304.313 61.328ZM306.185 58.664L305.267 58.2653L305.264 58.2744L306.185 58.664ZM308.777 49.232L309.759 49.417L309.76 49.4149L308.777 49.232ZM310.001 40.376L309.002 40.322L309.001 40.3355L309.001 40.349L310.001 40.376ZM309.569 32.456L308.655 32.8621L308.655 32.8621L309.569 32.456ZM304.673 32.168L305.355 32.8991L305.355 32.8991L304.673 32.168ZM300.857 65.44C295.716 65.44 292.047 64.2296 289.662 61.9857C287.288 59.7525 286.017 56.3338 286.017 51.536H284.017C284.017 56.6742 285.385 60.7075 288.291 63.4423C291.186 66.1664 295.437 67.44 300.857 67.44V65.44ZM286.017 51.536C286.017 44.6734 287.902 39.1087 291.61 34.7608L290.088 33.4632C286.019 38.2353 284.017 44.2866 284.017 51.536H286.017ZM291.61 34.7603C295.523 30.1645 300.869 27.84 307.769 27.84V25.84C300.364 25.84 294.43 28.3635 290.087 33.4637L291.61 34.7603ZM307.769 27.84C312.815 27.84 316.444 29.0094 318.832 31.1799L320.177 29.7001C317.285 27.0706 313.09 25.84 307.769 25.84V27.84ZM318.832 31.1799C321.189 33.3227 322.465 36.7224 322.465 41.6H324.465C324.465 36.3976 323.1 32.3573 320.177 29.7001L318.832 31.1799ZM322.465 41.6C322.465 49.0972 320.454 54.9029 316.538 59.1371L318.007 60.4949C322.347 55.8011 324.465 49.4628 324.465 41.6H322.465ZM316.534 59.1417C312.722 63.3172 307.536 65.44 300.857 65.44V67.44C308.001 67.44 313.759 65.1468 318.011 60.4903L316.534 59.1417ZM301.815 34.7139C301.207 36.0821 300.662 37.7754 300.173 39.779L302.116 40.253C302.587 38.3206 303.098 36.7499 303.642 35.5261L301.815 34.7139ZM300.169 39.7965C299.733 41.7329 299.227 44.2419 298.65 47.3197L300.615 47.6883C301.19 44.6221 301.692 42.1391 302.12 40.2355L300.169 39.7965ZM298.65 47.3197C298.06 50.4637 297.769 53.9587 297.769 57.8H299.769C299.769 54.0573 300.053 50.6883 300.615 47.6883L298.65 47.3197ZM297.769 57.8C297.769 59.1421 297.974 60.3317 298.44 61.3218L300.249 60.4702C299.947 59.8283 299.769 58.9539 299.769 57.8H297.769ZM298.461 61.3639C299.103 62.5777 300.261 63.12 301.649 63.12V61.12C300.828 61.12 300.45 60.8463 300.228 60.4281L298.461 61.3639ZM301.649 63.12C302.911 63.12 304.037 62.8167 304.93 62.1143L303.695 60.5417C303.245 60.8953 302.595 61.12 301.649 61.12V63.12ZM304.904 62.1344C305.826 61.4582 306.541 60.3883 307.106 59.0536L305.264 58.2744C304.772 59.4357 304.239 60.1418 303.721 60.5216L304.904 62.1344ZM307.102 59.0627C308.105 56.7543 308.986 53.5258 309.759 49.417L307.794 49.047C307.031 53.0982 306.184 56.1577 305.268 58.2653L307.102 59.0627ZM309.76 49.4149C310.528 45.2858 310.95 42.2653 311 40.403L309.001 40.349C308.955 42.0387 308.561 44.9222 307.793 49.0491L309.76 49.4149ZM310.999 40.43C311.096 38.6421 311.145 37.0872 311.145 35.768H309.145C309.145 37.0408 309.097 38.5579 309.002 40.322L310.999 40.43ZM311.145 35.768C311.145 34.3388 310.942 33.0837 310.482 32.0499L308.655 32.8621C308.963 33.5563 309.145 34.5092 309.145 35.768H311.145ZM310.482 32.0499C310.214 31.4455 309.797 30.9514 309.225 30.6192C308.663 30.2929 308.016 30.16 307.337 30.16V32.16C307.761 32.16 308.038 32.2431 308.22 32.3488C308.392 32.4486 308.539 32.6025 308.655 32.8621L310.482 32.0499ZM307.337 30.16C306.047 30.16 304.91 30.5789 303.99 31.4369L305.355 32.8991C305.876 32.4131 306.514 32.16 307.337 32.16V30.16ZM303.99 31.4369C303.139 32.2316 302.423 33.3448 301.815 34.7139L303.642 35.5261C304.186 34.3032 304.766 33.4484 305.355 32.8991L303.99 31.4369ZM349.3 61.04L350.224 61.422L350.766 60.1103L349.348 60.0412L349.3 61.04ZM333.964 63.92L333.21 64.5768L333.217 64.5859L333.226 64.5948L333.964 63.92ZM334.684 42.248L335.657 42.476L335.662 42.4558L335.666 42.4353L334.684 42.248ZM337.348 28.28L337.25 27.2848L336.505 27.3581L336.365 28.0927L337.348 28.28ZM351.964 26.84L352.945 27.0295L353.2 25.7134L351.866 25.8448L351.964 26.84ZM347.572 49.592L348.546 49.8159L348.55 49.7988L348.553 49.7815L347.572 49.592ZM340.948 13.952L340.411 13.1083L340.399 13.1159L340.948 13.952ZM352.108 13.952L351.508 14.752L351.514 14.757L351.521 14.7619L352.108 13.952ZM351.892 22.52L351.362 21.672L351.356 21.6758L351.349 21.6797L351.892 22.52ZM340.732 22.52L340.164 23.3432L340.17 23.3477L340.177 23.352L340.732 22.52ZM348.375 60.658C347.708 62.2719 346.697 63.4432 345.344 64.2238C343.977 65.0125 342.195 65.44 339.94 65.44V67.44C342.437 67.44 344.59 66.9675 346.343 65.9562C348.11 64.9368 349.403 63.4081 350.224 61.422L348.375 60.658ZM339.94 65.44C337.749 65.44 336.033 64.7011 334.702 63.2452L333.226 64.5948C334.966 66.4989 337.235 67.44 339.94 67.44V65.44ZM334.718 63.2632C333.528 61.8971 333.02 60.6332 333.02 59.456H331.02C331.02 61.2548 331.807 62.9669 333.21 64.5768L334.718 63.2632ZM333.02 59.456C333.02 55.6879 333.885 50.0441 335.657 42.476L333.71 42.02C331.93 49.6199 331.02 55.4481 331.02 59.456H333.02ZM335.666 42.4353L338.33 28.4673L336.365 28.0927L333.701 42.0607L335.666 42.4353ZM337.446 29.2752L352.062 27.8352L351.866 25.8448L337.25 27.2848L337.446 29.2752ZM350.982 26.6505L346.59 49.4025L348.553 49.7815L352.945 27.0295L350.982 26.6505ZM346.597 49.3681C345.785 52.9033 345.348 55.4124 345.348 56.792H347.348C347.348 55.6756 347.726 53.3847 348.546 49.8159L346.597 49.3681ZM345.348 56.792C345.348 58.2537 345.606 59.529 346.264 60.4767C346.96 61.4782 348.007 61.9781 349.251 62.0388L349.348 60.0412C348.624 60.0059 348.195 59.7498 347.907 59.3353C347.581 58.867 347.348 58.0663 347.348 56.792H345.348ZM339.644 18.272C339.644 16.7292 340.248 15.607 341.496 14.788L340.399 13.1159C338.575 14.313 337.644 16.0708 337.644 18.272H339.644ZM341.484 14.7957C342.878 13.9087 344.603 13.44 346.708 13.44V11.44C344.3 11.44 342.185 11.9793 340.411 13.1083L341.484 14.7957ZM346.708 13.44C348.821 13.44 350.387 13.9119 351.508 14.752L352.708 13.152C351.14 11.9761 349.107 11.44 346.708 11.44V13.44ZM351.521 14.7619C352.628 15.5631 353.196 16.6873 353.196 18.272H355.196C355.196 16.1127 354.372 14.3569 352.694 13.1421L351.521 14.7619ZM353.196 18.272C353.196 19.8132 352.594 20.9021 351.362 21.672L352.422 23.368C354.262 22.2179 355.196 20.4748 355.196 18.272H353.196ZM351.349 21.6797C350.062 22.5103 348.392 22.96 346.276 22.96V24.96C348.672 24.96 350.745 24.4497 352.434 23.3603L351.349 21.6797ZM346.276 22.96C344.158 22.96 342.519 22.5097 341.286 21.6879L340.177 23.352C341.824 24.4503 343.881 24.96 346.276 24.96V22.96ZM341.299 21.6968C340.21 20.9457 339.644 19.8564 339.644 18.272H337.644C337.644 20.4316 338.469 22.1743 340.164 23.3432L341.299 21.6968ZM382.29 44.768L381.418 44.2777L381.046 44.9388L381.583 45.4751L382.29 44.768ZM379.122 35.336L379.966 35.8715L379.971 35.8641L379.975 35.8566L379.122 35.336ZM376.674 42.104L377.661 42.2654L377.662 42.2533L376.674 42.104ZM372.93 65L373.026 65.9954L373.792 65.9213L373.917 65.1614L372.93 65ZM358.026 66.44L357.044 66.251L356.791 67.5639L358.122 67.4354L358.026 66.44ZM365.37 28.28L365.249 27.2873L364.526 27.375L364.388 28.091L365.37 28.28ZM377.25 26.84L378.234 27.0155L378.471 25.6846L377.129 25.8473L377.25 26.84ZM375.954 34.112L374.969 33.9365L376.853 34.5485L375.954 34.112ZM393.81 29L393.114 29.7186L393.12 29.7241L393.126 29.7295L393.81 29ZM393.162 42.824L392.472 42.0994L392.464 42.108L393.162 42.824ZM383.161 45.2583C384.962 42.0563 385.882 38.7931 385.882 35.48H383.882C383.882 38.4069 383.073 41.3357 381.418 44.2777L383.161 45.2583ZM385.882 35.48C385.882 34.3578 385.685 33.336 385.135 32.5732C384.541 31.7498 383.653 31.384 382.65 31.384V33.384C383.135 33.384 383.362 33.5342 383.513 33.7428C383.707 34.012 383.882 34.5382 383.882 35.48H385.882ZM382.65 31.384C381.771 31.384 380.97 31.7627 380.262 32.3551C379.559 32.9429 378.899 33.7803 378.268 34.8154L379.975 35.8566C380.544 34.9237 381.072 34.2851 381.545 33.8889C382.013 33.4973 382.376 33.384 382.65 33.384V31.384ZM378.277 34.8005C376.947 36.8975 376.087 39.2877 375.685 41.9547L377.662 42.2533C378.028 39.8323 378.8 37.7105 379.966 35.8715L378.277 34.8005ZM375.687 41.9426L371.943 64.8386L373.917 65.1614L377.661 42.2654L375.687 41.9426ZM372.834 64.0046L357.93 65.4446L358.122 67.4354L373.026 65.9954L372.834 64.0046ZM359.008 66.629L366.352 28.469L364.388 28.091L357.044 66.251L359.008 66.629ZM365.49 29.2727L377.37 27.8327L377.129 25.8473L365.249 27.2873L365.49 29.2727ZM376.265 26.6645L374.969 33.9365L376.938 34.2875L378.234 27.0155L376.265 26.6645ZM376.853 34.5485C377.964 32.2591 379.392 30.5969 381.116 29.5021C382.838 28.408 384.919 27.84 387.402 27.84V25.84C384.604 25.84 382.137 26.484 380.044 27.8139C377.951 29.1431 376.295 31.1169 375.054 33.6755L376.853 34.5485ZM387.402 27.84C390.018 27.84 391.87 28.5141 393.114 29.7186L394.505 28.2814C392.774 26.6059 390.354 25.84 387.402 25.84V27.84ZM393.126 29.7295C394.388 30.9132 395.114 32.8077 395.114 35.624H397.114C397.114 32.4883 396.303 29.9668 394.494 28.2705L393.126 29.7295ZM395.114 35.624C395.114 38.3019 394.225 40.432 392.472 42.0994L393.851 43.5486C396.034 41.472 397.114 38.8021 397.114 35.624H395.114ZM392.464 42.108C390.772 43.7572 388.43 44.632 385.314 44.632V46.632C388.822 46.632 391.711 45.6348 393.86 43.54L392.464 42.108ZM385.314 44.632C383.951 44.632 383.285 44.349 382.997 44.0609L381.583 45.4751C382.447 46.339 383.796 46.632 385.314 46.632V44.632Z" fill="#765CC1"/>
</g>
<rect width="90" height="90" fill="#CEC5E9"/>
<g filter="url(#filter1_d)">
<path d="M6.49998 73L21.885 16.9H39.65L43.56 48.945L59.37 16.9H74.245L75.775 58.89C76.0017 64.4433 77.475 68.07 80.195 69.77C79.5717 70.9033 78.3533 72.0083 76.54 73.085C74.7267 74.1617 72.6017 74.7 70.165 74.7C67.785 74.7 65.8866 74.36 64.47 73.68C63.0533 73 61.9483 72.0933 61.155 70.96C59.7383 68.92 59.03 65.945 59.03 62.035V35.77L42.285 73H31.745L25.795 34.835L16.275 73H6.49998Z" fill="#1F3480"/>
</g>
<defs>
<filter id="filter0_d" x="94.7528" y="6.43994" width="310.361" height="70.1329" filterUnits="userSpaceOnUse" color-interpolation-filters="sRGB">
<feFlood flood-opacity="0" result="BackgroundImageFix"/>
<feColorMatrix in="SourceAlpha" type="matrix" values="0 0 0 0 0 0 0 0 0 0 0 0 0 0 0 0 0 0 127 0"/>
<feOffset dx="1" dy="2"/>
<feGaussianBlur stdDeviation="3.5"/>
<feColorMatrix type="matrix" values="0 0 0 0 0.0626472 0 0 0 0 0.0290278 0 0 0 0 0.158333 0 0 0 0.87 0"/>
<feBlend mode="normal" in2="BackgroundImageFix" result="effect1_dropShadow"/>
<feBlend mode="normal" in="SourceGraphic" in2="effect1_dropShadow" result="shape"/>
</filter>
<filter id="filter1_d" x="4.49997" y="14.9" width="85.695" height="69.8" filterUnits="userSpaceOnUse" color-interpolation-filters="sRGB">
<feFlood flood-opacity="0" result="BackgroundImageFix"/>
<feColorMatrix in="SourceAlpha" type="matrix" values="0 0 0 0 0 0 0 0 0 0 0 0 0 0 0 0 0 0 127 0"/>
<feOffset dx="4" dy="4"/>
<feGaussianBlur stdDeviation="3"/>
<feColorMatrix type="matrix" values="0 0 0 0 0 0 0 0 0 0 0 0 0 0 0 0 0 0 0.5 0"/>
<feBlend mode="normal" in2="BackgroundImageFix" result="effect1_dropShadow"/>
<feBlend mode="normal" in="SourceGraphic" in2="effect1_dropShadow" result="shape"/>
</filter>
</defs>
</svg>
