<svg width="447" height="84" viewBox="0 0 447 84" fill="none" xmlns="http://www.w3.org/2000/svg">
<g filter="url(#filter0_d)">
<path d="M8.064 59L21.096 11.48H36.144L39.456 38.624L52.848 11.48H65.448L66.744 47.048C66.936 51.752 68.184 54.824 70.488 56.264C69.96 57.224 68.928 58.16 67.392 59.072C65.856 59.984 64.056 60.44 61.992 60.44C59.976 60.44 58.368 60.152 57.168 59.576C55.968 59 55.032 58.232 54.36 57.272C53.16 55.544 52.56 53.024 52.56 49.712V27.464L38.376 59H29.448L24.408 26.672L16.344 59H8.064ZM100.792 50.864C98.2956 53.456 94.7676 54.752 90.2076 54.752C84.4956 54.752 81.0396 52.664 79.8396 48.488C79.4556 47.24 79.2636 45.92 79.2636 44.528C79.2636 43.136 79.4076 41.72 79.6956 40.28L83.0796 22.28L97.6956 20.84L93.7356 41.792C93.6396 42.416 93.5196 43.064 93.3756 43.736C93.2316 44.408 93.1596 45.104 93.1596 45.824C93.1596 46.496 93.2796 47.072 93.5196 47.552C93.7596 47.984 94.0476 48.344 94.3836 48.632C94.9596 49.016 95.7516 49.208 96.7596 49.208C97.8156 49.208 98.7756 48.584 99.6396 47.336C100.552 46.088 101.224 44.384 101.656 42.224L105.616 22.28L119.8 20.84L114.4 49.136C112.624 58.352 109.912 64.784 106.264 68.432C104.392 70.304 102.232 71.6 99.7836 72.32C97.3836 73.088 94.6236 73.472 91.5036 73.472C86.4636 73.472 82.5036 72.68 79.6236 71.096C76.7436 69.512 75.3036 67.4 75.3036 64.76C75.3036 62.792 76.0476 61.232 77.5356 60.08C79.0236 58.976 80.9196 58.424 83.2236 58.424C85.2396 58.424 87.0156 58.856 88.5516 59.72C89.4636 60.248 90.1356 60.848 90.5676 61.52C89.4636 62.48 88.9116 63.752 88.9116 65.336C88.9116 67.448 89.8716 68.504 91.7916 68.504C94.9596 68.504 97.4556 64.856 99.2796 57.56C99.8076 55.4 100.312 53.168 100.792 50.864ZM143.719 59L156.751 11.48H171.799L175.111 38.624L188.503 11.48H201.103L202.399 47.048C202.591 51.752 203.839 54.824 206.143 56.264C205.615 57.224 204.583 58.16 203.047 59.072C201.511 59.984 199.711 60.44 197.647 60.44C195.631 60.44 194.023 60.152 192.823 59.576C191.623 59 190.687 58.232 190.015 57.272C188.815 55.544 188.215 53.024 188.215 49.712V27.464L174.031 59H165.103L160.063 26.672L151.999 59H143.719ZM242.711 46.832C243.911 47.648 244.511 48.968 244.511 50.792C244.511 52.568 244.055 54.032 243.143 55.184C242.231 56.336 241.031 57.296 239.543 58.064C236.471 59.648 233.279 60.44 229.967 60.44C226.655 60.44 224.015 60.08 222.047 59.36C220.127 58.64 218.519 57.608 217.223 56.264C214.679 53.72 213.407 50.12 213.407 45.464C213.407 38.216 215.375 32.384 219.311 27.968C223.535 23.216 229.319 20.84 236.663 20.84C241.223 20.84 244.631 21.8 246.887 23.72C248.567 25.16 249.407 27.056 249.407 29.408C249.407 37.856 242.111 42.08 227.519 42.08C227.327 43.328 227.231 44.48 227.231 45.536C227.231 47.744 227.711 49.28 228.671 50.144C229.679 50.96 231.095 51.368 232.919 51.368C234.743 51.368 236.615 50.96 238.535 50.144C240.503 49.28 241.895 48.176 242.711 46.832ZM228.023 38.984C231.431 38.984 234.119 37.928 236.087 35.816C238.055 33.8 239.039 31.184 239.039 27.968C239.039 26.864 238.823 26.024 238.391 25.448C238.007 24.824 237.407 24.512 236.591 24.512C235.775 24.512 235.007 24.68 234.287 25.016C233.615 25.304 232.919 25.976 232.199 27.032C230.423 29.432 229.031 33.416 228.023 38.984ZM308.031 60.44C302.223 60.44 299.319 58.184 299.319 53.672C299.319 51.704 299.727 48.824 300.543 45.032C301.407 41.192 301.983 38.504 302.271 36.968C302.943 33.464 303.279 31.16 303.279 30.056C303.279 27.608 302.367 26.384 300.543 26.384C299.343 26.384 298.167 27.224 297.015 28.904C295.863 30.536 295.023 33.008 294.495 36.32L290.031 59L275.991 60.44L279.879 40.856C280.311 38.696 280.719 36.392 281.103 33.944C281.487 31.496 281.679 30.08 281.679 29.696C281.679 27.488 280.863 26.384 279.231 26.384C278.127 26.384 276.975 27.2 275.775 28.832C274.575 30.464 273.639 32.96 272.967 36.32L268.575 59L254.391 60.44L261.951 22.28L273.687 20.84L272.463 28.112C273.711 25.52 275.487 23.672 277.791 22.568C280.095 21.416 283.047 20.84 286.647 20.84C288.711 20.84 290.415 21.344 291.759 22.352C293.103 23.36 293.991 24.68 294.423 26.312C295.239 24.632 296.679 23.312 298.743 22.352C300.855 21.344 303.183 20.84 305.727 20.84C308.319 20.84 310.239 21.128 311.487 21.704C312.783 22.232 313.815 22.952 314.583 23.864C315.879 25.544 316.527 27.92 316.527 30.992C316.527 34.016 315.879 38.672 314.583 44.96C313.911 48.032 313.575 50.144 313.575 51.296C313.575 52.4 313.887 53.288 314.511 53.96C315.183 54.632 315.999 55.016 316.959 55.112C316.479 56.744 315.399 58.04 313.719 59C312.087 59.96 310.191 60.44 308.031 60.44ZM342.512 60.44C331.952 60.44 326.672 55.472 326.672 45.536C326.672 38.48 328.616 32.672 332.504 28.112C336.632 23.264 342.272 20.84 349.424 20.84C354.608 20.84 358.52 22.04 361.16 24.44C363.8 26.84 365.12 30.56 365.12 35.6C365.12 43.28 363.056 49.352 358.928 53.816C354.896 58.232 349.424 60.44 342.512 60.44ZM344.384 29.12C343.808 30.416 343.28 32.048 342.8 34.016C342.368 35.936 341.864 38.432 341.288 41.504C340.712 44.576 340.424 48.008 340.424 51.8C340.424 53.048 340.616 54.08 341 54.896C341.432 55.712 342.2 56.12 343.304 56.12C344.408 56.12 345.296 55.856 345.968 55.328C346.688 54.8 347.312 53.912 347.84 52.664C348.8 50.456 349.664 47.312 350.432 43.232C351.2 39.104 351.608 36.152 351.656 34.376C351.752 32.6 351.8 31.064 351.8 29.768C351.8 28.424 351.608 27.32 351.224 26.456C350.84 25.592 350.096 25.16 348.992 25.16C347.936 25.16 347.048 25.496 346.328 26.168C345.608 26.84 344.96 27.824 344.384 29.12ZM390.955 55.04C389.467 58.64 386.347 60.44 381.595 60.44C379.147 60.44 377.155 59.6 375.619 57.92C374.323 56.432 373.675 54.944 373.675 53.456C373.675 49.568 374.563 43.832 376.339 36.248L379.003 22.28L393.619 20.84L389.227 43.592C388.411 47.144 388.003 49.544 388.003 50.792C388.003 53.528 388.987 54.944 390.955 55.04ZM380.299 12.272C380.299 10.4 381.067 8.96 382.603 7.952C384.187 6.944 386.107 6.44 388.363 6.44C390.619 6.44 392.419 6.944 393.763 7.952C395.155 8.96 395.851 10.4 395.851 12.272C395.851 14.144 395.083 15.56 393.547 16.52C392.059 17.48 390.187 17.96 387.931 17.96C385.675 17.96 383.827 17.48 382.387 16.52C380.995 15.56 380.299 14.144 380.299 12.272ZM423.945 38.768C425.673 35.696 426.537 32.6 426.537 29.48C426.537 27.416 425.793 26.384 424.305 26.384C423.153 26.384 421.977 27.368 420.777 29.336C419.529 31.304 418.713 33.56 418.329 36.104L414.585 59L399.681 60.44L407.025 22.28L418.905 20.84L417.609 28.112C419.961 23.264 423.777 20.84 429.057 20.84C431.841 20.84 433.977 21.56 435.465 23C437.001 24.44 437.769 26.648 437.769 29.624C437.769 32.552 436.785 34.952 434.817 36.824C432.897 38.696 430.281 39.632 426.969 39.632C425.529 39.632 424.521 39.344 423.945 38.768Z" fill="white"/>
<path d="M8.064 59L7.09961 58.7355L6.75283 60H8.064V59ZM21.096 11.48V10.48H20.3333L20.1316 11.2155L21.096 11.48ZM36.144 11.48L37.1366 11.3589L37.0294 10.48H36.144V11.48ZM39.456 38.624L38.4634 38.7451L38.8694 42.0731L40.3528 39.0664L39.456 38.624ZM52.848 11.48V10.48H52.2263L51.9512 11.0375L52.848 11.48ZM65.448 11.48L66.4473 11.4436L66.4122 10.48H65.448V11.48ZM66.744 47.048L65.7447 47.0844L65.7448 47.0888L66.744 47.048ZM70.488 56.264L71.3642 56.7459L71.82 55.9172L71.018 55.416L70.488 56.264ZM67.392 59.072L66.8815 58.2121L67.392 59.072ZM57.168 59.576L57.6007 58.6745L57.168 59.576ZM54.36 57.272L53.5386 57.8424L53.5408 57.8455L54.36 57.272ZM52.56 27.464H53.56L51.648 27.0538L52.56 27.464ZM38.376 59V60H39.0227L39.288 59.4102L38.376 59ZM29.448 59L28.4599 59.154L28.5918 60H29.448V59ZM24.408 26.672L25.3961 26.518L23.4377 26.43L24.408 26.672ZM16.344 59V60H17.1252L17.3143 59.242L16.344 59ZM9.02839 59.2645L22.0604 11.7445L20.1316 11.2155L7.09961 58.7355L9.02839 59.2645ZM21.096 12.48H36.144V10.48H21.096V12.48ZM35.1514 11.6011L38.4634 38.7451L40.4486 38.5029L37.1366 11.3589L35.1514 11.6011ZM40.3528 39.0664L53.7448 11.9224L51.9512 11.0375L38.5592 38.1815L40.3528 39.0664ZM52.848 12.48H65.448V10.48H52.848V12.48ZM64.4487 11.5164L65.7447 47.0844L67.7433 47.0116L66.4473 11.4436L64.4487 11.5164ZM65.7448 47.0888C65.9405 51.8835 67.2186 55.3999 69.958 57.112L71.018 55.416C69.1494 54.2481 67.9315 51.6205 67.7432 47.0072L65.7448 47.0888ZM69.6118 55.7821C69.208 56.5163 68.3508 57.3398 66.8815 58.2121L67.9025 59.9319C69.5052 58.9802 70.712 57.9317 71.3642 56.7459L69.6118 55.7821ZM66.8815 58.2121C65.5226 59.0189 63.9047 59.44 61.992 59.44V61.44C64.2073 61.44 66.1894 60.9491 67.9025 59.9319L66.8815 58.2121ZM61.992 59.44C60.0557 59.44 58.6142 59.1609 57.6007 58.6745L56.7353 60.4775C58.1218 61.1431 59.8963 61.44 61.992 61.44V59.44ZM57.6007 58.6745C56.5342 58.1626 55.74 57.4996 55.1792 56.6985L53.5408 57.8455C54.324 58.9644 55.4018 59.8374 56.7353 60.4775L57.6007 58.6745ZM55.1814 56.7016C54.147 55.2121 53.56 52.9283 53.56 49.712H51.56C51.56 53.1197 52.173 55.8759 53.5386 57.8424L55.1814 56.7016ZM53.56 49.712V27.464H51.56V49.712H53.56ZM51.648 27.0538L37.464 58.5898L39.288 59.4102L53.472 27.8742L51.648 27.0538ZM38.376 58H29.448V60H38.376V58ZM30.4361 58.846L25.3961 26.518L23.4199 26.826L28.4599 59.154L30.4361 58.846ZM23.4377 26.43L15.3737 58.758L17.3143 59.242L25.3783 26.914L23.4377 26.43ZM16.344 58H8.064V60H16.344V58ZM100.792 50.864L101.771 51.068L102.478 47.6707L100.071 50.1704L100.792 50.864ZM79.8396 48.488L80.8007 48.2118L80.7981 48.2028L80.7953 48.1939L79.8396 48.488ZM79.6956 40.28L80.6762 40.4761L80.6783 40.4648L79.6956 40.28ZM83.0796 22.28L82.9815 21.2848L82.2353 21.3583L82.0968 22.0952L83.0796 22.28ZM97.6956 20.84L98.6782 21.0257L98.9261 19.7139L97.5975 19.8448L97.6956 20.84ZM93.7356 41.792L92.753 41.6063L92.7498 41.6231L92.7472 41.6399L93.7356 41.792ZM93.3756 43.736L92.3978 43.5265L92.3978 43.5265L93.3756 43.736ZM93.5196 47.552L92.6251 47.9992L92.6349 48.0186L92.6454 48.0376L93.5196 47.552ZM94.3836 48.632L93.7328 49.3913L93.7786 49.4306L93.8289 49.464L94.3836 48.632ZM99.6396 47.336L98.8322 46.746L98.8246 46.7563L98.8174 46.7668L99.6396 47.336ZM101.656 42.224L102.636 42.4201L102.636 42.4188L101.656 42.224ZM105.616 22.28L105.515 21.2851L104.779 21.3598L104.635 22.0852L105.616 22.28ZM119.8 20.84L120.782 21.0275L121.033 19.7096L119.699 19.8451L119.8 20.84ZM114.4 49.136L115.382 49.3252L115.382 49.3235L114.4 49.136ZM106.264 68.432L106.971 69.1391L106.971 69.1391L106.264 68.432ZM99.7836 72.32L99.5014 71.3606L99.4901 71.364L99.4788 71.3676L99.7836 72.32ZM79.6236 71.096L79.1416 71.9722L79.1416 71.9722L79.6236 71.096ZM77.5356 60.08L76.9397 59.2769L76.9315 59.283L76.9234 59.2893L77.5356 60.08ZM88.5516 59.72L89.0526 58.8545L89.0418 58.8484L88.5516 59.72ZM90.5676 61.52L91.2237 62.2746L91.8765 61.7069L91.4087 60.9792L90.5676 61.52ZM99.2796 57.56L100.25 57.8025L100.251 57.7975L99.2796 57.56ZM100.071 50.1704C97.8111 52.5174 94.5726 53.752 90.2076 53.752V55.752C94.9625 55.752 98.78 54.3946 101.512 51.5576L100.071 50.1704ZM90.2076 53.752C87.462 53.752 85.3689 53.2486 83.8487 52.3301C82.3538 51.4269 81.3368 50.0777 80.8007 48.2118L78.8785 48.7642C79.5423 51.0743 80.8534 52.8571 82.8144 54.0419C84.7502 55.2114 87.2411 55.752 90.2076 55.752V53.752ZM80.7953 48.1939C80.4425 47.0473 80.2636 45.8269 80.2636 44.528H78.2636C78.2636 46.0131 78.4686 47.4327 78.8838 48.7821L80.7953 48.1939ZM80.2636 44.528C80.2636 43.2054 80.4004 41.8551 80.6761 40.4761L78.715 40.0839C78.4148 41.5849 78.2636 43.0666 78.2636 44.528H80.2636ZM80.6783 40.4648L84.0623 22.4648L82.0968 22.0952L78.7128 40.0952L80.6783 40.4648ZM83.1776 23.2752L97.7936 21.8352L97.5975 19.8448L82.9815 21.2848L83.1776 23.2752ZM96.713 20.6543L92.753 41.6063L94.7182 41.9777L98.6782 21.0257L96.713 20.6543ZM92.7472 41.6399C92.6544 42.2431 92.538 42.8719 92.3978 43.5265L94.3534 43.9455C94.5011 43.2561 94.6247 42.5889 94.7239 41.9441L92.7472 41.6399ZM92.3978 43.5265C92.2383 44.2705 92.1596 45.0369 92.1596 45.824H94.1596C94.1596 45.1711 94.2248 44.5455 94.3534 43.9455L92.3978 43.5265ZM92.1596 45.824C92.1596 46.613 92.3004 47.3498 92.6251 47.9992L94.414 47.1048C94.2587 46.7942 94.1596 46.379 94.1596 45.824H92.1596ZM92.6454 48.0376C92.9363 48.5613 93.2968 49.0175 93.7328 49.3913L95.0344 47.8727C94.7983 47.6705 94.5828 47.4067 94.3937 47.0664L92.6454 48.0376ZM93.8289 49.464C94.6282 49.9969 95.6396 50.208 96.7596 50.208V48.208C95.8635 48.208 95.291 48.0351 94.9383 47.7999L93.8289 49.464ZM96.7596 50.208C98.272 50.208 99.4984 49.2968 100.462 47.9052L98.8174 46.7668C98.0528 47.8712 97.3591 48.208 96.7596 48.208V50.208ZM100.447 47.926C101.473 46.522 102.187 44.6662 102.636 42.4201L100.675 42.0279C100.26 44.1018 99.6302 45.654 98.8322 46.746L100.447 47.926ZM102.636 42.4188L106.596 22.4748L104.635 22.0852L100.675 42.0292L102.636 42.4188ZM105.717 23.2749L119.901 21.8349L119.699 19.8451L105.515 21.2851L105.717 23.2749ZM118.817 20.6525L113.417 48.9485L115.382 49.3235L120.782 21.0275L118.817 20.6525ZM113.418 48.9468C111.653 58.1057 108.988 64.293 105.556 67.7249L106.971 69.1391C110.835 65.275 113.595 58.5983 115.381 49.3252L113.418 48.9468ZM105.556 67.7249C103.798 69.4832 101.783 70.6897 99.5014 71.3606L100.066 73.2794C102.68 72.5103 104.985 71.1248 106.971 69.1391L105.556 67.7249ZM99.4788 71.3676C97.1975 72.0976 94.5437 72.472 91.5036 72.472V74.472C94.7034 74.472 97.5696 74.0784 100.088 73.2724L99.4788 71.3676ZM91.5036 72.472C86.5499 72.472 82.7796 71.6905 80.1055 70.2198L79.1416 71.9722C82.2276 73.6695 86.3772 74.472 91.5036 74.472V72.472ZM80.1055 70.2198C77.4529 68.7608 76.3036 66.941 76.3036 64.76H74.3036C74.3036 67.859 76.0343 70.2632 79.1416 71.9722L80.1055 70.2198ZM76.3036 64.76C76.3036 63.0849 76.9171 61.8235 78.1477 60.8707L76.9234 59.2893C75.178 60.6405 74.3036 62.4991 74.3036 64.76H76.3036ZM78.1314 60.8831C79.4088 59.9353 81.0811 59.424 83.2236 59.424V57.424C80.758 57.424 78.6383 58.0167 76.9397 59.2769L78.1314 60.8831ZM83.2236 59.424C85.0929 59.424 86.6954 59.8233 88.0613 60.5916L89.0418 58.8484C87.3357 57.8887 85.3862 57.424 83.2236 57.424V59.424ZM88.0505 60.5854C88.8672 61.0582 89.4033 61.5582 89.7264 62.0608L91.4087 60.9792C90.8678 60.1378 90.06 59.4378 89.0526 58.8546L88.0505 60.5854ZM89.9114 60.7654C88.5694 61.9324 87.9116 63.4896 87.9116 65.336H89.9116C89.9116 64.0144 90.3578 63.0276 91.2237 62.2746L89.9114 60.7654ZM87.9116 65.336C87.9116 66.5238 88.1795 67.6013 88.8916 68.3847C89.6202 69.1861 90.6516 69.504 91.7916 69.504V67.504C91.0116 67.504 90.6029 67.2939 90.3715 67.0393C90.1236 66.7667 89.9116 66.2602 89.9116 65.336H87.9116ZM91.7916 69.504C93.8256 69.504 95.5104 68.3123 96.8649 66.3327C98.2109 64.3655 99.3262 61.4966 100.25 57.8025L98.3094 57.3175C97.4089 60.9194 96.3643 63.5225 95.2143 65.2033C94.0728 66.8717 92.9255 67.504 91.7916 67.504V69.504ZM100.251 57.7975C100.782 55.6257 101.288 53.3825 101.771 51.068L99.8126 50.66C99.3348 52.9535 98.8333 55.1743 98.3082 57.3225L100.251 57.7975ZM143.719 59L142.755 58.7355L142.408 60H143.719V59ZM156.751 11.48V10.48H155.989L155.787 11.2155L156.751 11.48ZM171.799 11.48L172.792 11.3589L172.685 10.48H171.799V11.48ZM175.111 38.624L174.119 38.7451L174.525 42.0731L176.008 39.0664L175.111 38.624ZM188.503 11.48V10.48H187.882L187.607 11.0375L188.503 11.48ZM201.103 11.48L202.103 11.4436L202.068 10.48H201.103V11.48ZM202.399 47.048L201.4 47.0844L201.4 47.0888L202.399 47.048ZM206.143 56.264L207.02 56.7459L207.475 55.9172L206.673 55.416L206.143 56.264ZM203.047 59.072L202.537 58.2121L203.047 59.072ZM192.823 59.576L193.256 58.6745L192.823 59.576ZM190.015 57.272L189.194 57.8424L189.196 57.8455L190.015 57.272ZM188.215 27.464H189.215L187.303 27.0538L188.215 27.464ZM174.031 59V60H174.678L174.943 59.4102L174.031 59ZM165.103 59L164.115 59.154L164.247 60H165.103V59ZM160.063 26.672L161.051 26.518L159.093 26.43L160.063 26.672ZM151.999 59V60H152.781L152.97 59.242L151.999 59ZM144.684 59.2645L157.716 11.7445L155.787 11.2155L142.755 58.7355L144.684 59.2645ZM156.751 12.48H171.799V10.48H156.751V12.48ZM170.807 11.6011L174.119 38.7451L176.104 38.5029L172.792 11.3589L170.807 11.6011ZM176.008 39.0664L189.4 11.9224L187.607 11.0375L174.215 38.1815L176.008 39.0664ZM188.503 12.48H201.103V10.48H188.503V12.48ZM200.104 11.5164L201.4 47.0844L203.399 47.0116L202.103 11.4436L200.104 11.5164ZM201.4 47.0888C201.596 51.8835 202.874 55.3999 205.613 57.112L206.673 55.416C204.805 54.2481 203.587 51.6205 203.398 47.0072L201.4 47.0888ZM205.267 55.7821C204.863 56.5163 204.006 57.3398 202.537 58.2121L203.558 59.9319C205.161 58.9802 206.367 57.9317 207.02 56.7459L205.267 55.7821ZM202.537 58.2121C201.178 59.0189 199.56 59.44 197.647 59.44V61.44C199.863 61.44 201.845 60.9491 203.558 59.9319L202.537 58.2121ZM197.647 59.44C195.711 59.44 194.27 59.1609 193.256 58.6745L192.391 60.4775C193.777 61.1431 195.552 61.44 197.647 61.44V59.44ZM193.256 58.6745C192.19 58.1626 191.395 57.4996 190.835 56.6985L189.196 57.8455C189.979 58.9644 191.057 59.8374 192.391 60.4775L193.256 58.6745ZM190.837 56.7016C189.802 55.2121 189.215 52.9283 189.215 49.712H187.215C187.215 53.1197 187.828 55.8759 189.194 57.8424L190.837 56.7016ZM189.215 49.712V27.464H187.215V49.712H189.215ZM187.303 27.0538L173.119 58.5898L174.943 59.4102L189.127 27.8742L187.303 27.0538ZM174.031 58H165.103V60H174.031V58ZM166.091 58.846L161.051 26.518L159.075 26.826L164.115 59.154L166.091 58.846ZM159.093 26.43L151.029 58.758L152.97 59.242L161.034 26.914L159.093 26.43ZM151.999 58H143.719V60H151.999V58ZM242.711 46.832L243.273 46.0051L242.403 45.413L241.856 46.313L242.711 46.832ZM243.143 55.184L243.927 55.8047L243.927 55.8047L243.143 55.184ZM239.543 58.064L240.001 58.9528L240.002 58.9526L239.543 58.064ZM222.047 59.36L221.696 60.2964L221.703 60.2991L222.047 59.36ZM217.223 56.264L217.943 55.5699L217.936 55.5633L217.93 55.5569L217.223 56.264ZM219.311 27.968L220.057 28.6334L220.058 28.6324L219.311 27.968ZM246.887 23.72L247.538 22.9607L247.535 22.9585L246.887 23.72ZM227.519 42.08V41.08H226.661L226.531 41.9279L227.519 42.08ZM228.671 50.144L228.002 50.8873L228.021 50.9048L228.042 50.9212L228.671 50.144ZM238.535 50.144L238.926 51.0644L238.937 51.0596L238.535 50.144ZM228.023 38.984L227.039 38.8059L226.826 39.984H228.023V38.984ZM236.087 35.816L235.371 35.1175L235.363 35.1258L235.355 35.1343L236.087 35.816ZM238.391 25.448L237.539 25.9721L237.563 26.0112L237.591 26.048L238.391 25.448ZM234.287 25.016L234.681 25.9351L234.695 25.9289L234.71 25.9222L234.287 25.016ZM232.199 27.032L233.003 27.6268L233.014 27.6113L233.025 27.5953L232.199 27.032ZM242.149 47.6589C243.004 48.2406 243.511 49.2032 243.511 50.792H245.511C245.511 48.7328 244.818 47.0554 243.273 46.0051L242.149 47.6589ZM243.511 50.792C243.511 52.3913 243.104 53.6226 242.359 54.5633L243.927 55.8047C245.006 54.4414 245.511 52.7447 245.511 50.792H243.511ZM242.359 54.5633C241.547 55.5893 240.464 56.4635 239.084 57.1754L240.002 58.9526C241.598 58.1285 242.915 57.0827 243.927 55.8047L242.359 54.5633ZM239.085 57.1752C236.148 58.6894 233.112 59.44 229.967 59.44V61.44C233.445 61.44 236.794 60.6066 240.001 58.9528L239.085 57.1752ZM229.967 59.44C226.712 59.44 224.203 59.0842 222.39 58.4209L221.703 60.2991C223.826 61.0758 226.598 61.44 229.967 61.44V59.44ZM222.398 58.4237C220.604 57.7507 219.126 56.7965 217.943 55.5699L216.503 56.9581C217.912 58.4195 219.65 59.5293 221.696 60.2963L222.398 58.4237ZM217.93 55.5569C215.624 53.2511 214.407 49.9362 214.407 45.464H212.407C212.407 50.3038 213.734 54.1889 216.516 56.9711L217.93 55.5569ZM214.407 45.464C214.407 38.4036 216.319 32.8272 220.057 28.6334L218.564 27.3026C214.43 31.9408 212.407 38.0284 212.407 45.464H214.407ZM220.058 28.6324C224.062 24.1279 229.556 21.84 236.663 21.84V19.84C229.082 19.84 223.007 22.3041 218.563 27.3036L220.058 28.6324ZM236.663 21.84C241.108 21.84 244.239 22.7796 246.239 24.4815L247.535 22.9585C245.023 20.8204 241.338 19.84 236.663 19.84V21.84ZM246.236 24.4793C247.679 25.7161 248.407 27.327 248.407 29.408H250.407C250.407 26.785 249.455 24.6039 247.538 22.9607L246.236 24.4793ZM248.407 29.408C248.407 33.2761 246.772 36.1138 243.434 38.0466C240.012 40.0275 234.751 41.08 227.519 41.08V43.08C234.879 43.08 240.561 42.0205 244.436 39.7774C248.394 37.4862 250.407 33.9879 250.407 29.408H248.407ZM226.531 41.9279C226.332 43.2168 226.231 44.4204 226.231 45.536H228.231C228.231 44.5396 228.322 43.4392 228.507 42.2321L226.531 41.9279ZM226.231 45.536C226.231 47.8363 226.722 49.7353 228.002 50.8873L229.34 49.4007C228.7 48.8247 228.231 47.6517 228.231 45.536H226.231ZM228.042 50.9212C229.288 51.93 230.957 52.368 232.919 52.368V50.368C231.232 50.368 230.07 49.99 229.3 49.3668L228.042 50.9212ZM232.919 52.368C234.895 52.368 236.9 51.9254 238.926 51.0643L238.144 49.2237C236.33 49.9946 234.591 50.368 232.919 50.368V52.368ZM238.937 51.0596C241.026 50.1427 242.61 48.9245 243.566 47.351L241.856 46.313C241.179 47.4275 239.98 48.4173 238.133 49.2284L238.937 51.0596ZM228.023 39.984C231.654 39.984 234.627 38.8494 236.818 36.4977L235.355 35.1343C233.611 37.0066 231.208 37.984 228.023 37.984V39.984ZM236.802 36.5145C238.979 34.2849 240.039 31.405 240.039 27.968H238.039C238.039 30.963 237.131 33.3151 235.371 35.1175L236.802 36.5145ZM240.039 27.968C240.039 26.7564 239.806 25.6675 239.191 24.848L237.591 26.048C237.84 26.3805 238.039 26.9716 238.039 27.968H240.039ZM239.243 24.9239C238.653 23.9661 237.707 23.512 236.591 23.512V25.512C237.107 25.512 237.361 25.6819 237.539 25.9721L239.243 24.9239ZM236.591 23.512C235.633 23.512 234.72 23.7103 233.864 24.1098L234.71 25.9222C235.294 25.6497 235.917 25.512 236.591 25.512V23.512ZM233.893 24.0969C232.959 24.4973 232.13 25.3585 231.373 26.4687L233.025 27.5953C233.708 26.5935 234.271 26.1107 234.681 25.9351L233.893 24.0969ZM231.395 26.4372C229.478 29.0273 228.054 33.1988 227.039 38.8059L229.007 39.1621C230.008 33.6332 231.367 29.8367 233.003 27.6268L231.395 26.4372ZM300.543 45.032L299.568 44.8125L299.566 44.8216L300.543 45.032ZM302.271 36.968L301.289 36.7796L301.288 36.7837L302.271 36.968ZM297.015 28.904L297.832 29.4807L297.84 29.4695L297.015 28.904ZM294.495 36.32L295.476 36.5131L295.48 36.4953L295.483 36.4774L294.495 36.32ZM290.031 59L290.133 59.9948L290.869 59.9193L291.012 59.1931L290.031 59ZM275.991 60.44L275.01 60.2453L274.747 61.5729L276.093 61.4348L275.991 60.44ZM279.879 40.856L278.899 40.6599L278.898 40.6613L279.879 40.856ZM281.103 33.944L280.115 33.789L280.115 33.789L281.103 33.944ZM275.775 28.832L274.97 28.2396L274.97 28.2396L275.775 28.832ZM272.967 36.32L271.987 36.1239L271.985 36.1299L272.967 36.32ZM268.575 59L268.676 59.9949L269.416 59.9198L269.557 59.1901L268.575 59ZM254.391 60.44L253.41 60.2457L253.148 61.5714L254.492 61.4349L254.391 60.44ZM261.951 22.28L261.829 21.2874L261.111 21.3756L260.97 22.0857L261.951 22.28ZM273.687 20.84L274.673 21.006L274.896 19.6842L273.565 19.8474L273.687 20.84ZM272.463 28.112L271.477 27.946L273.364 28.5458L272.463 28.112ZM277.791 22.568L278.223 23.4698L278.231 23.4662L278.238 23.4624L277.791 22.568ZM291.759 22.352L291.159 23.152L291.159 23.152L291.759 22.352ZM294.423 26.312L293.456 26.5679L294.146 29.1719L295.323 26.7489L294.423 26.312ZM298.743 22.352L299.165 23.2588L299.174 23.2545L298.743 22.352ZM311.487 21.704L311.068 22.612L311.089 22.6215L311.11 22.6301L311.487 21.704ZM314.583 23.864L315.375 23.2532L315.362 23.2362L315.348 23.2199L314.583 23.864ZM314.583 44.96L315.56 45.1737L315.563 45.1619L314.583 44.96ZM314.511 53.96L313.778 54.6405L313.791 54.654L313.804 54.6671L314.511 53.96ZM316.959 55.112L317.919 55.3942L318.259 54.237L317.059 54.117L316.959 55.112ZM313.719 59L313.223 58.1317L313.212 58.1381L313.719 59ZM308.031 59.44C305.229 59.44 303.311 58.8911 302.111 57.9583C300.958 57.0628 300.319 55.6969 300.319 53.672H298.319C298.319 56.1591 299.132 58.1772 300.884 59.5377C302.587 60.8609 305.025 61.44 308.031 61.44V59.44ZM300.319 53.672C300.319 51.8137 300.708 49.0182 301.521 45.2424L299.566 44.8216C298.746 48.6298 298.319 51.5943 298.319 53.672H300.319ZM301.519 45.2515C302.383 41.4121 302.962 38.708 303.254 37.1523L301.288 36.7837C301.004 38.2999 300.432 40.9719 299.568 44.8125L301.519 45.2515ZM303.253 37.1563C303.921 33.6735 304.279 31.2726 304.279 30.056H302.279C302.279 31.0474 301.965 33.2545 301.289 36.7796L303.253 37.1563ZM304.279 30.056C304.279 28.7369 304.039 27.5655 303.397 26.7045C302.714 25.7883 301.702 25.384 300.543 25.384V27.384C301.209 27.384 301.564 27.5917 301.793 27.8995C302.064 28.2625 302.279 28.9271 302.279 30.056H304.279ZM300.543 25.384C298.836 25.384 297.399 26.5759 296.19 28.3385L297.84 29.4695C298.935 27.8721 299.85 27.384 300.543 27.384V25.384ZM296.198 28.3273C294.918 30.1416 294.045 32.7891 293.508 36.1626L295.483 36.4774C296.001 33.2269 296.809 30.9304 297.832 29.4807L296.198 28.3273ZM293.514 36.1269L289.05 58.8069L291.012 59.1931L295.476 36.5131L293.514 36.1269ZM289.929 58.0052L275.889 59.4452L276.093 61.4348L290.133 59.9948L289.929 58.0052ZM276.972 60.6347L280.86 41.0507L278.898 40.6613L275.01 60.2453L276.972 60.6347ZM280.86 41.0521C281.295 38.8769 281.705 36.5591 282.091 34.099L280.115 33.789C279.733 36.2249 279.328 38.5151 278.899 40.6599L280.86 41.0521ZM282.091 34.099C282.284 32.8723 282.429 31.8984 282.526 31.1804C282.619 30.4941 282.679 29.9699 282.679 29.696H280.679C280.679 29.8061 280.643 30.1819 280.544 30.9116C280.45 31.6096 280.307 32.5677 280.115 33.789L282.091 34.099ZM282.679 29.696C282.679 28.4981 282.463 27.4181 281.871 26.6176C281.238 25.7606 280.297 25.384 279.231 25.384V27.384C279.798 27.384 280.08 27.5594 280.263 27.8064C280.487 28.1099 280.679 28.6859 280.679 29.696H282.679ZM279.231 25.384C277.621 25.384 276.208 26.5547 274.97 28.2396L276.581 29.4244C277.742 27.8453 278.633 27.384 279.231 27.384V25.384ZM274.97 28.2396C273.643 30.0439 272.67 32.7066 271.987 36.1239L273.948 36.5161C274.608 33.2134 275.508 30.8841 276.581 29.4244L274.97 28.2396ZM271.985 36.1299L267.593 58.8099L269.557 59.1901L273.949 36.5101L271.985 36.1299ZM268.474 58.0051L254.29 59.4451L254.492 61.4349L268.676 59.9949L268.474 58.0051ZM255.372 60.6343L262.932 22.4743L260.97 22.0857L253.41 60.2457L255.372 60.6343ZM262.073 23.2726L273.809 21.8326L273.565 19.8474L261.829 21.2874L262.073 23.2726ZM272.701 20.674L271.477 27.946L273.449 28.278L274.673 21.006L272.701 20.674ZM273.364 28.5458C274.527 26.1313 276.15 24.4633 278.223 23.4698L277.359 21.6662C274.824 22.8807 272.896 24.9087 271.562 27.6782L273.364 28.5458ZM278.238 23.4624C280.36 22.4018 283.144 21.84 286.647 21.84V19.84C282.95 19.84 279.831 20.4302 277.344 21.6736L278.238 23.4624ZM286.647 21.84C288.545 21.84 290.025 22.3012 291.159 23.152L292.359 21.552C290.806 20.3868 288.877 19.84 286.647 19.84V21.84ZM291.159 23.152C292.322 24.0243 293.082 25.1522 293.456 26.5679L295.39 26.0561C294.901 24.2078 293.884 22.6957 292.359 21.552L291.159 23.152ZM295.323 26.7489C296.018 25.3182 297.262 24.1437 299.165 23.2587L298.321 21.4453C296.096 22.4803 294.461 23.9458 293.524 25.8751L295.323 26.7489ZM299.174 23.2545C301.14 22.3161 303.319 21.84 305.727 21.84V19.84C303.047 19.84 300.57 20.3719 298.312 21.4495L299.174 23.2545ZM305.727 21.84C308.28 21.84 310.022 22.1292 311.068 22.612L311.906 20.796C310.456 20.1268 308.358 19.84 305.727 19.84V21.84ZM311.11 22.6301C312.282 23.1075 313.171 23.74 313.818 24.5081L315.348 23.2199C314.459 22.1639 313.285 21.3564 311.864 20.7779L311.11 22.6301ZM313.791 24.4748C314.904 25.9167 315.527 28.0453 315.527 30.992H317.527C317.527 27.7947 316.855 25.1713 315.375 23.2532L313.791 24.4748ZM315.527 30.992C315.527 33.9079 314.898 38.4798 313.604 44.7581L315.563 45.1619C316.861 38.8642 317.527 34.1241 317.527 30.992H315.527ZM313.606 44.7463C312.937 47.8077 312.575 50.0206 312.575 51.296H314.575C314.575 50.2674 314.886 48.2563 315.56 45.1737L313.606 44.7463ZM312.575 51.296C312.575 52.598 312.949 53.7471 313.778 54.6405L315.244 53.2795C314.825 52.8289 314.575 52.202 314.575 51.296H312.575ZM313.804 54.6671C314.642 55.505 315.674 55.9884 316.86 56.107L317.059 54.117C316.325 54.0436 315.724 53.759 315.218 53.2529L313.804 54.6671ZM316 54.8298C315.603 56.1794 314.712 57.2809 313.223 58.1318L314.215 59.8682C316.086 58.7991 317.355 57.3086 317.919 55.3942L316 54.8298ZM313.212 58.1381C311.754 58.9955 310.038 59.44 308.031 59.44V61.44C310.344 61.44 312.42 60.9245 314.226 59.8619L313.212 58.1381ZM332.504 28.112L333.265 28.7608L333.265 28.7603L332.504 28.112ZM358.928 53.816L358.194 53.1371L358.189 53.1417L358.928 53.816ZM342.8 34.016L341.828 33.779L341.826 33.7877L341.824 33.7965L342.8 34.016ZM341.288 41.504L340.305 41.3197L340.305 41.3197L341.288 41.504ZM341 54.896L340.095 55.3218L340.105 55.3431L340.116 55.3639L341 54.896ZM345.968 55.328L345.377 54.5216L345.363 54.5314L345.35 54.5417L345.968 55.328ZM347.84 52.664L346.923 52.2653L346.919 52.2744L347.84 52.664ZM350.432 43.232L351.415 43.417L351.415 43.4149L350.432 43.232ZM351.656 34.376L350.657 34.322L350.657 34.3355L350.656 34.349L351.656 34.376ZM351.224 26.456L350.31 26.8621L350.31 26.8621L351.224 26.456ZM346.328 26.168L347.01 26.8991L347.01 26.8991L346.328 26.168ZM342.512 59.44C337.371 59.44 333.702 58.2296 331.317 55.9857C328.944 53.7525 327.672 50.3338 327.672 45.536H325.672C325.672 50.6742 327.04 54.7075 329.947 57.4423C332.842 60.1664 337.092 61.44 342.512 61.44V59.44ZM327.672 45.536C327.672 38.6734 329.558 33.1087 333.265 28.7608L331.743 27.4632C327.674 32.2353 325.672 38.2866 325.672 45.536H327.672ZM333.265 28.7603C337.178 24.1645 342.524 21.84 349.424 21.84V19.84C342.019 19.84 336.085 22.3635 331.743 27.4637L333.265 28.7603ZM349.424 21.84C354.47 21.84 358.1 23.0094 360.487 25.1799L361.833 23.7001C358.94 21.0706 354.745 19.84 349.424 19.84V21.84ZM360.487 25.1799C362.844 27.3227 364.12 30.7224 364.12 35.6H366.12C366.12 30.3976 364.755 26.3573 361.833 23.7001L360.487 25.1799ZM364.12 35.6C364.12 43.0972 362.109 48.9029 358.194 53.1371L359.662 54.4949C364.003 49.8011 366.12 43.4628 366.12 35.6H364.12ZM358.189 53.1417C354.377 57.3172 349.191 59.44 342.512 59.44V61.44C349.657 61.44 355.415 59.1468 359.666 54.4903L358.189 53.1417ZM343.47 28.7139C342.862 30.0821 342.317 31.7754 341.828 33.779L343.771 34.253C344.243 32.3206 344.754 30.7499 345.298 29.5261L343.47 28.7139ZM341.824 33.7965C341.389 35.7329 340.882 38.2419 340.305 41.3197L342.271 41.6883C342.846 38.6221 343.347 36.1391 343.775 34.2355L341.824 33.7965ZM340.305 41.3197C339.716 44.4637 339.424 47.9587 339.424 51.8H341.424C341.424 48.0573 341.708 44.6883 342.271 41.6883L340.305 41.3197ZM339.424 51.8C339.424 53.1421 339.629 54.3317 340.095 55.3218L341.905 54.4702C341.603 53.8283 341.424 52.9539 341.424 51.8H339.424ZM340.116 55.3639C340.759 56.5777 341.917 57.12 343.304 57.12V55.12C342.483 55.12 342.105 54.8463 341.884 54.4281L340.116 55.3639ZM343.304 57.12C344.566 57.12 345.692 56.8167 346.586 56.1143L345.35 54.5417C344.9 54.8953 344.25 55.12 343.304 55.12V57.12ZM346.559 56.1344C347.481 55.4582 348.196 54.3883 348.761 53.0536L346.919 52.2744C346.428 53.4357 345.894 54.1418 345.377 54.5216L346.559 56.1344ZM348.757 53.0627C349.761 50.7543 350.641 47.5258 351.415 43.417L349.449 43.047C348.687 47.0982 347.839 50.1577 346.923 52.2653L348.757 53.0627ZM351.415 43.4149C352.183 39.2858 352.605 36.2653 352.656 34.403L350.656 34.349C350.611 36.0387 350.217 38.9222 349.449 43.0491L351.415 43.4149ZM352.654 34.43C352.751 32.6421 352.8 31.0872 352.8 29.768H350.8C350.8 31.0408 350.753 32.5579 350.657 34.322L352.654 34.43ZM352.8 29.768C352.8 28.3388 352.597 27.0837 352.138 26.0499L350.31 26.8621C350.619 27.5563 350.8 28.5092 350.8 29.768H352.8ZM352.138 26.0499C351.869 25.4455 351.452 24.9514 350.88 24.6192C350.318 24.2929 349.671 24.16 348.992 24.16V26.16C349.416 26.16 349.694 26.2431 349.876 26.3488C350.048 26.4486 350.195 26.6025 350.31 26.8621L352.138 26.0499ZM348.992 24.16C347.703 24.16 346.565 24.5789 345.646 25.4369L347.01 26.8991C347.531 26.4131 348.169 26.16 348.992 26.16V24.16ZM345.646 25.4369C344.794 26.2316 344.079 27.3448 343.47 28.7139L345.298 29.5261C345.841 28.3032 346.422 27.4484 347.01 26.8991L345.646 25.4369ZM390.955 55.04L391.879 55.422L392.421 54.1103L391.004 54.0412L390.955 55.04ZM375.619 57.92L374.865 58.5768L374.873 58.5859L374.881 58.5948L375.619 57.92ZM376.339 36.248L377.313 36.476L377.317 36.4558L377.321 36.4353L376.339 36.248ZM379.003 22.28L378.905 21.2848L378.161 21.3581L378.021 22.0927L379.003 22.28ZM393.619 20.84L394.601 21.0295L394.855 19.7134L393.521 19.8448L393.619 20.84ZM389.227 43.592L390.202 43.8159L390.205 43.7988L390.209 43.7815L389.227 43.592ZM382.603 7.952L382.066 7.10825L382.054 7.11595L382.603 7.952ZM393.763 7.952L393.163 8.752L393.17 8.75702L393.176 8.76194L393.763 7.952ZM393.547 16.52L393.017 15.672L393.011 15.6758L393.005 15.6797L393.547 16.52ZM382.387 16.52L381.819 17.3432L381.826 17.3477L381.832 17.352L382.387 16.52ZM390.031 54.658C389.364 56.2719 388.352 57.4432 386.999 58.2238C385.632 59.0125 383.85 59.44 381.595 59.44V61.44C384.092 61.44 386.246 60.9675 387.999 59.9562C389.766 58.9368 391.058 57.4081 391.879 55.422L390.031 54.658ZM381.595 59.44C379.404 59.44 377.688 58.7011 376.357 57.2452L374.881 58.5948C376.622 60.4989 378.89 61.44 381.595 61.44V59.44ZM376.373 57.2632C375.183 55.8971 374.675 54.6332 374.675 53.456H372.675C372.675 55.2548 373.463 56.9669 374.865 58.5768L376.373 57.2632ZM374.675 53.456C374.675 49.6879 375.54 44.0441 377.313 36.476L375.365 36.02C373.586 43.6199 372.675 49.4481 372.675 53.456H374.675ZM377.321 36.4353L379.985 22.4673L378.021 22.0927L375.357 36.0607L377.321 36.4353ZM379.101 23.2752L393.717 21.8352L393.521 19.8448L378.905 21.2848L379.101 23.2752ZM392.637 20.6505L388.245 43.4025L390.209 43.7815L394.601 21.0295L392.637 20.6505ZM388.252 43.3681C387.44 46.9033 387.003 49.4124 387.003 50.792H389.003C389.003 49.6756 389.382 47.3847 390.202 43.8159L388.252 43.3681ZM387.003 50.792C387.003 52.2537 387.261 53.529 387.92 54.4767C388.616 55.4782 389.662 55.9781 390.906 56.0388L391.004 54.0412C390.279 54.0059 389.85 53.7498 389.562 53.3353C389.237 52.867 389.003 52.0663 389.003 50.792H387.003ZM381.299 12.272C381.299 10.7292 381.904 9.607 383.152 8.78804L382.054 7.11595C380.23 8.31299 379.299 10.0708 379.299 12.272H381.299ZM383.14 8.79566C384.534 7.90873 386.258 7.44 388.363 7.44V5.44C385.955 5.44 383.84 5.97927 382.066 7.10833L383.14 8.79566ZM388.363 7.44C390.476 7.44 392.043 7.9119 393.163 8.752L394.363 7.152C392.795 5.97609 390.762 5.44 388.363 5.44V7.44ZM393.176 8.76194C394.283 9.56314 394.851 10.6873 394.851 12.272H396.851C396.851 10.1127 396.027 8.35686 394.349 7.14205L393.176 8.76194ZM394.851 12.272C394.851 13.8132 394.249 14.9021 393.017 15.672L394.077 17.368C395.917 16.2179 396.851 14.4748 396.851 12.272H394.851ZM393.005 15.6797C391.717 16.5103 390.047 16.96 387.931 16.96V18.96C390.327 18.96 392.401 18.4497 394.089 17.3603L393.005 15.6797ZM387.931 16.96C385.813 16.96 384.174 16.5097 382.942 15.6879L381.832 17.352C383.48 18.4503 385.537 18.96 387.931 18.96V16.96ZM382.955 15.6968C381.866 14.9457 381.299 13.8564 381.299 12.272H379.299C379.299 14.4316 380.124 16.1743 381.819 17.3432L382.955 15.6968ZM423.945 38.768L423.073 38.2777L422.702 38.9388L423.238 39.4751L423.945 38.768ZM420.777 29.336L421.622 29.8715L421.626 29.8641L421.631 29.8566L420.777 29.336ZM418.329 36.104L419.316 36.2654L419.318 36.2533L418.329 36.104ZM414.585 59L414.681 59.9954L415.448 59.9213L415.572 59.1614L414.585 59ZM399.681 60.44L398.699 60.251L398.446 61.5639L399.777 61.4354L399.681 60.44ZM407.025 22.28L406.905 21.2873L406.181 21.375L406.043 22.091L407.025 22.28ZM418.905 20.84L419.889 21.0155L420.127 19.6846L418.785 19.8473L418.905 20.84ZM417.609 28.112L416.625 27.9365L418.509 28.5485L417.609 28.112ZM435.465 23L434.77 23.7186L434.775 23.7241L434.781 23.7295L435.465 23ZM434.817 36.824L434.128 36.0994L434.119 36.108L434.817 36.824ZM424.817 39.2583C426.618 36.0563 427.537 32.7931 427.537 29.48H425.537C425.537 32.4069 424.728 35.3357 423.073 38.2777L424.817 39.2583ZM427.537 29.48C427.537 28.3578 427.34 27.336 426.79 26.5732C426.197 25.7498 425.308 25.384 424.305 25.384V27.384C424.79 27.384 425.017 27.5342 425.168 27.7428C425.362 28.012 425.537 28.5382 425.537 29.48H427.537ZM424.305 25.384C423.426 25.384 422.625 25.7627 421.917 26.3551C421.215 26.9429 420.554 27.7803 419.923 28.8154L421.631 29.8566C422.2 28.9237 422.727 28.2851 423.201 27.8889C423.669 27.4973 424.032 27.384 424.305 27.384V25.384ZM419.932 28.8005C418.603 30.8975 417.743 33.2877 417.34 35.9547L419.318 36.2533C419.683 33.8323 420.455 31.7105 421.622 29.8715L419.932 28.8005ZM417.342 35.9426L413.598 58.8386L415.572 59.1614L419.316 36.2654L417.342 35.9426ZM414.489 58.0046L399.585 59.4446L399.777 61.4354L414.681 59.9954L414.489 58.0046ZM400.663 60.629L408.007 22.469L406.043 22.091L398.699 60.251L400.663 60.629ZM407.145 23.2727L419.025 21.8327L418.785 19.8473L406.905 21.2873L407.145 23.2727ZM417.921 20.6645L416.625 27.9365L418.593 28.2875L419.889 21.0155L417.921 20.6645ZM418.509 28.5485C419.619 26.2591 421.048 24.5969 422.771 23.5021C424.494 22.408 426.574 21.84 429.057 21.84V19.84C426.26 19.84 423.792 20.484 421.699 21.8139C419.606 23.1431 417.951 25.1169 416.709 27.6755L418.509 28.5485ZM429.057 21.84C431.673 21.84 433.525 22.5141 434.77 23.7186L436.16 22.2814C434.429 20.6059 432.009 19.84 429.057 19.84V21.84ZM434.781 23.7295C436.044 24.9132 436.769 26.8077 436.769 29.624H438.769C438.769 26.4883 437.958 23.9668 436.149 22.2705L434.781 23.7295ZM436.769 29.624C436.769 32.3019 435.881 34.432 434.128 36.0994L435.506 37.5486C437.689 35.472 438.769 32.8021 438.769 29.624H436.769ZM434.119 36.108C432.427 37.7572 430.085 38.632 426.969 38.632V40.632C430.477 40.632 433.367 39.6348 435.515 37.54L434.119 36.108ZM426.969 38.632C425.607 38.632 424.94 38.349 424.652 38.0609L423.238 39.4751C424.102 40.339 425.451 40.632 426.969 40.632V38.632Z" fill="#765CC1"/>
</g>
<defs>
<filter id="filter0_d" x="0.752808" y="0.439941" width="446.016" height="83.032" filterUnits="userSpaceOnUse" color-interpolation-filters="sRGB">
<feFlood flood-opacity="0" result="BackgroundImageFix"/>
<feColorMatrix in="SourceAlpha" type="matrix" values="0 0 0 0 0 0 0 0 0 0 0 0 0 0 0 0 0 0 127 0"/>
<feOffset dx="1" dy="2"/>
<feGaussianBlur stdDeviation="3.5"/>
<feColorMatrix type="matrix" values="0 0 0 0 0.0626472 0 0 0 0 0.0290278 0 0 0 0 0.158333 0 0 0 0.87 0"/>
<feBlend mode="normal" in2="BackgroundImageFix" result="effect1_dropShadow"/>
<feBlend mode="normal" in="SourceGraphic" in2="effect1_dropShadow" result="shape"/>
</filter>
</defs>
</svg>
